<svg width="30" height="30" viewBox="0 0 30 30" fill="none" xmlns="http://www.w3.org/2000/svg">
<g clip-path="url(#clip0)">
<path d="M6.16094 29.4235H0.909941C0.418457 29.4235 0.0200195 29.025 0.0200195 28.5336V10.7144C0.0200195 10.2229 0.418457 9.82446 0.909941 9.82446H6.161C6.65248 9.82446 7.05092 10.2229 7.05092 10.7144V28.5336C7.05086 29.025 6.65242 29.4235 6.16094 29.4235Z" fill="#5582FF"/>
<path d="M29.11 29.4235H23.859C23.3675 29.4235 22.9691 29.025 22.9691 28.5336V19.3787C22.9691 17.9873 21.837 16.8554 20.4457 16.8554C19.0543 16.8554 17.9224 17.9873 17.9224 19.3787V28.5336C17.9224 29.0251 17.5239 29.4235 17.0325 29.4235H11.7814C11.2899 29.4235 10.8915 29.0251 10.8915 28.5336V10.7144C10.8915 10.2229 11.2899 9.82446 11.7814 9.82446H17.0325C17.5157 9.82446 17.909 10.2098 17.922 10.69C18.9697 10.1148 20.1905 9.82446 21.571 9.82446C24.1204 9.82446 26.2813 10.8155 27.82 12.6905C29.2258 14.4033 30 16.7786 30 19.3787V28.5336C30 29.025 29.6015 29.4235 29.11 29.4235Z" fill="#5582FF"/>
<path d="M3.53549 7.63276C1.59709 7.63276 -0.211289 6.04188 0.0200395 4.11731C0.277032 1.97958 1.92 0.351494 3.53549 0.601865C5.45098 0.898818 7.05094 2.17892 7.05094 4.11731C7.05094 6.05571 5.47389 7.63276 3.53549 7.63276Z" fill="#5582FF"/>
<path d="M21.571 9.82446C20.1906 9.82446 18.9697 10.1147 17.922 10.69C17.909 10.2098 17.5157 9.82446 17.0325 9.82446H14.4336V29.4235H17.0325C17.5239 29.4235 17.9224 29.025 17.9224 28.5336V19.3787C17.9224 17.9873 19.0544 16.8554 20.4457 16.8554C21.837 16.8554 22.9691 17.9873 22.9691 19.3787V28.5336C22.9691 29.0251 23.3675 29.4235 23.859 29.4235H29.11C29.6015 29.4235 30 29.0251 30 28.5336V19.3787C30 16.7787 29.2258 14.4034 27.82 12.6905C26.2812 10.8155 24.1204 9.82446 21.571 9.82446Z" fill="#2864F0"/>
</g>
<defs>
<clipPath id="clip0">
<rect width="30" height="30" fill="white"/>
</clipPath>
</defs>
</svg>
