<svg width="30" height="30" viewBox="0 0 30 30" fill="none" xmlns="http://www.w3.org/2000/svg">
<g clip-path="url(#clip0)">
<path d="M15.0148 30C12.3564 30 9.72263 29.2944 7.43138 27.9553L1.59767 29.5184C1.28343 29.6027 0.947923 29.5128 0.717825 29.2826C0.487669 29.0525 0.397786 28.717 0.481985 28.4027L2.04515 22.569C0.434524 19.813 -0.259694 16.5616 0.0881766 13.3674C0.456145 9.98859 1.98486 6.80156 4.39294 4.39354C7.22613 1.56029 10.993 0 14.9999 0C19.0068 0 22.7736 1.56029 25.6069 4.39359C28.4401 7.22684 30.0005 10.9938 30.0005 15.0006C30.0005 19.0074 28.4402 22.7743 25.6069 25.6076C23.1989 28.0156 20.0119 29.5444 16.633 29.9123C16.0943 29.971 15.5541 30 15.0148 30Z" fill="#AAC85A"/>
<path d="M15 0V29.9999C15.0048 29.9999 15.0096 30 15.0144 30C15.5537 30 16.0939 29.971 16.6326 29.9123C20.0115 29.5443 23.1984 28.0156 25.6065 25.6075C28.4397 22.7743 30.0001 19.0073 30.0001 15.0006C30.0001 10.9938 28.4398 7.22684 25.6065 4.39359C22.7733 1.56047 19.0067 0.000175781 15 0Z" fill="#6EAA50"/>
<path d="M17.9716 23.1176C15.4118 23.1176 12.5923 21.8404 10.3759 19.6241C7.83462 17.0828 6.52792 13.7482 6.96579 10.9217C7.23456 9.18687 8.14973 7.83388 9.54286 7.11218C10.3374 6.7005 11.3004 6.85296 11.9393 7.49181L13.5292 9.08169C13.9628 9.51528 14.1802 10.1143 14.1254 10.7252C14.0708 11.3361 13.7503 11.8871 13.2464 12.2368L12.4481 12.7907C12.5821 13.5428 12.9618 15.0004 13.9807 16.0194C14.9992 17.038 16.4562 17.4177 17.2094 17.5518L17.7632 16.7537C18.1128 16.2499 18.6637 15.9294 19.2746 15.8746C19.8851 15.8197 20.4846 16.0372 20.9183 16.4709L22.5082 18.0608C23.147 18.6996 23.2995 19.6625 22.8879 20.4572C22.8878 20.4572 22.8878 20.4572 22.8878 20.4572C22.1661 21.8503 20.8132 22.7654 19.0782 23.0342C18.7168 23.0902 18.347 23.1176 17.9716 23.1176Z" fill="white"/>
<path d="M20.9183 16.4708C20.4845 16.0371 19.885 15.8197 19.2746 15.8746C18.6637 15.9294 18.1129 16.2497 17.7632 16.7537L17.2094 17.5518C16.6853 17.4584 15.8207 17.2459 15 16.7824V22.5866C15.9966 22.9343 17.0027 23.1176 17.9717 23.1176C18.3471 23.1176 18.7169 23.0902 19.0783 23.0342C20.8132 22.7655 22.1662 21.8503 22.8879 20.4572C22.8879 20.4572 22.8879 20.4572 22.8879 20.4572C23.2996 19.6625 23.1471 18.6994 22.5083 18.0608L20.9183 16.4708Z" fill="#DCE1EB"/>
</g>
<defs>
<clipPath id="clip0">
<rect width="30" height="30" fill="white"/>
</clipPath>
</defs>
</svg>
