<svg width="30" height="30" viewBox="0 0 30 30" fill="none" xmlns="http://www.w3.org/2000/svg">
<path d="M21.9141 0H8.08594C3.62109 0 0 3.62109 0 8.08594V21.9141C0 26.3789 3.62109 30 8.08594 30H21.9141C26.3789 30 30 26.3789 30 21.9141V8.08594C30 3.62109 26.3789 0 21.9141 0ZM22.5527 15.6855C22.4941 17.0684 22.2129 18.3691 21.3164 19.4766C20.6953 20.2383 19.8926 20.7246 18.9668 21.0293C18.041 21.3281 17.0859 21.416 16.1191 21.4102C15.1523 21.4043 14.1914 21.4336 13.2246 21.3984C12.1523 21.3633 11.1094 21.1641 10.1484 20.6602C8.98242 20.0449 8.20312 19.0957 7.80469 17.8359C7.54102 17.0156 7.42383 16.1777 7.44141 15.3164C7.45898 14.3086 7.74023 13.3887 8.36133 12.5918C8.54297 12.3516 8.63672 12.1465 8.61328 11.8066C8.57227 11.2676 8.6543 10.7109 8.74219 10.1719C8.81836 9.7207 8.96484 9.28125 9.09375 8.83594C9.10547 8.78906 9.12891 8.74219 9.1582 8.70117C9.19922 8.63086 9.38086 8.60742 9.55664 8.6543C10.7227 8.96484 11.7598 9.51562 12.7559 10.1602C12.8555 10.2246 13.0137 10.248 13.1367 10.2246C14.0098 10.0723 14.8828 10.0488 15.7617 10.0898C16.1191 10.1074 16.4648 10.1953 16.8223 10.2188C16.9746 10.2305 17.1504 10.2012 17.2734 10.125C18.1875 9.55078 19.1426 9.05859 20.168 8.71875C20.2617 8.68359 20.3672 8.66016 20.4785 8.63672C20.6543 8.60156 20.8418 8.70703 20.9062 8.87695C20.9883 9.09961 21.0762 9.32812 21.1172 9.56836C21.2402 10.2598 21.3926 10.9629 21.3809 11.6543C21.375 12.1172 21.5156 12.416 21.7617 12.7734C22.3828 13.6406 22.5996 14.6309 22.5527 15.6855Z" fill="#2864F0"/>
<path d="M19.2597 15.0645C18.832 14.8711 18.3281 14.7832 17.8535 14.7539C17.332 14.7246 16.7988 14.8477 16.2715 14.8418C15.1172 14.8301 13.9629 14.7715 12.8086 14.7598C12.3457 14.7539 11.8886 14.8125 11.4316 14.8418C11.0156 14.8652 10.664 15.0352 10.3476 15.3047C9.11131 16.3535 9.2988 18.2754 10.0488 19.2832C10.5176 19.916 11.1914 20.209 11.9297 20.3848C12.9316 20.625 13.9453 20.6895 14.9765 20.6426C16.0195 20.6895 17.0566 20.6309 18.0761 20.3848C18.5976 20.2617 19.1015 20.0918 19.5176 19.7344C20.4258 18.9492 20.6601 17.9238 20.4844 16.7871C20.3672 16.0312 19.9804 15.3809 19.2597 15.0645ZM12.3808 19.0078C11.7725 19.0078 11.2793 18.3493 11.2793 17.5371C11.2793 16.7249 11.7725 16.0664 12.3808 16.0664C12.9892 16.0664 13.4824 16.7249 13.4824 17.5371C13.4824 18.3493 12.9892 19.0078 12.3808 19.0078ZM17.6367 19.0078C17.0283 19.0078 16.5351 18.3493 16.5351 17.5371C16.5351 16.7249 17.0283 16.0664 17.6367 16.0664C18.2451 16.0664 18.7383 16.7249 18.7383 17.5371C18.7383 18.3493 18.2451 19.0078 17.6367 19.0078Z" fill="#2864F0"/>
</svg>
