<svg width="926" height="646" viewBox="0 0 926 646" fill="none" xmlns="http://www.w3.org/2000/svg">
<g clip-path="url(#clip0)">
<path d="M233.088 346.866C243.255 346.866 251.497 338.624 251.497 328.457C251.497 318.29 243.255 310.048 233.088 310.048C222.921 310.048 214.679 318.29 214.679 328.457C214.679 338.624 222.921 346.866 233.088 346.866Z" fill="#F2F2F2"/>
<path d="M170.088 551.866C176.389 551.866 181.497 546.758 181.497 540.457C181.497 534.156 176.389 529.048 170.088 529.048C163.787 529.048 158.679 534.156 158.679 540.457C158.679 546.758 163.787 551.866 170.088 551.866Z" fill="#F2F2F2"/>
<path d="M519.997 21.5H379.997V23.5H519.997V21.5Z" fill="#F2F2F2"/>
<path d="M419.997 3.5H417.997V22H419.997V3.5Z" fill="#F2F2F2"/>
<path d="M480.997 3.5H478.997V22H480.997V3.5Z" fill="#F2F2F2"/>
<path d="M745.997 505.5H605.997V507.5H745.997V505.5Z" fill="#F2F2F2"/>
<path d="M645.997 487.5H643.997V506H645.997V487.5Z" fill="#F2F2F2"/>
<path d="M706.997 487.5H704.997V506H706.997V487.5Z" fill="#F2F2F2"/>
<path d="M752.997 200.5H612.997V202.5H752.997V200.5Z" fill="#F2F2F2"/>
<path d="M652.997 182.5H650.997V201H652.997V182.5Z" fill="#F2F2F2"/>
<path d="M713.997 182.5H711.997V201H713.997V182.5Z" fill="#F2F2F2"/>
<path d="M752.997 128.5H612.997V130.5H752.997V128.5Z" fill="#F2F2F2"/>
<path d="M652.997 110.5H650.997V129H652.997V110.5Z" fill="#F2F2F2"/>
<path d="M713.997 110.5H711.997V129H713.997V110.5Z" fill="#F2F2F2"/>
<path d="M445.997 138.5H305.997V140.5H445.997V138.5Z" fill="#F2F2F2"/>
<path d="M345.997 120.5H343.997V139H345.997V120.5Z" fill="#F2F2F2"/>
<path d="M406.997 120.5H404.997V139H406.997V120.5Z" fill="#F2F2F2"/>
<path d="M343.997 91.5H203.997V93.5H343.997V91.5Z" fill="#F2F2F2"/>
<path d="M243.997 73.5H241.997V92H243.997V73.5Z" fill="#F2F2F2"/>
<path d="M304.997 73.5H302.997V92H304.997V73.5Z" fill="#F2F2F2"/>
<path d="M280.997 276.5H140.997V278.5H280.997V276.5Z" fill="#F2F2F2"/>
<path d="M180.997 258.5H178.997V277H180.997V258.5Z" fill="#F2F2F2"/>
<path d="M241.997 258.5H239.997V277H241.997V258.5Z" fill="#F2F2F2"/>
<path d="M210.997 480.5H70.997V482.5H210.997V480.5Z" fill="#F2F2F2"/>
<path d="M110.997 462.5H108.997V481H110.997V462.5Z" fill="#F2F2F2"/>
<path d="M171.997 462.5H169.997V481H171.997V462.5Z" fill="#F2F2F2"/>
<path d="M872.997 396.5H732.997V398.5H872.997V396.5Z" fill="#F2F2F2"/>
<path d="M772.997 378.5H770.997V397H772.997V378.5Z" fill="#F2F2F2"/>
<path d="M833.997 378.5H831.997V397H833.997V378.5Z" fill="#F2F2F2"/>
<path d="M831.997 268.5H691.997V270.5H831.997V268.5Z" fill="#F2F2F2"/>
<path d="M793.997 270H791.997V288.5H793.997V270Z" fill="#F2F2F2"/>
<path d="M732.997 270H730.997V288.5H732.997V270Z" fill="#F2F2F2"/>
<path d="M153.997 118.5H13.997V120.5H153.997V118.5Z" fill="#F2F2F2"/>
<path d="M115.997 120H113.997V138.5H115.997V120Z" fill="#F2F2F2"/>
<path d="M54.997 120H52.997V138.5H54.997V120Z" fill="#F2F2F2"/>
<path d="M162.997 380.5H22.997V382.5H162.997V380.5Z" fill="#F2F2F2"/>
<path d="M124.997 382H122.997V400.5H124.997V382Z" fill="#F2F2F2"/>
<path d="M63.997 382H61.997V400.5H63.997V382Z" fill="#F2F2F2"/>
<path d="M603.997 53.5H463.997V55.5H603.997V53.5Z" fill="#F2F2F2"/>
<path d="M565.997 55H563.997V73.5H565.997V55Z" fill="#F2F2F2"/>
<path d="M504.997 55H502.997V73.5H504.997V55Z" fill="#F2F2F2"/>
<path d="M210.997 192.5H70.997V194.5H210.997V192.5Z" fill="#F2F2F2"/>
<path d="M110.997 174.5H108.997V193H110.997V174.5Z" fill="#F2F2F2"/>
<path d="M171.997 174.5H169.997V193H171.997V174.5Z" fill="#F2F2F2"/>
<path d="M233.497 173V644H669.497V173H233.497ZM451.497 207C448.53 207 445.63 206.12 443.163 204.472C440.697 202.824 438.774 200.481 437.639 197.74C436.504 194.999 436.206 191.983 436.785 189.074C437.364 186.164 438.793 183.491 440.89 181.393C442.988 179.296 445.661 177.867 448.571 177.288C451.48 176.709 454.496 177.006 457.237 178.142C459.978 179.277 462.321 181.2 463.969 183.666C465.617 186.133 466.497 189.033 466.497 192C466.497 195.978 464.917 199.794 462.104 202.607C459.291 205.42 455.475 207 451.497 207V207Z" fill="#3F3D56"/>
<path d="M37.2549 603.797C44.1689 629.356 67.8509 645.184 67.8509 645.184C67.8509 645.184 80.323 619.575 73.4091 594.017C66.4951 568.459 42.8131 552.63 42.8131 552.63C42.8131 552.63 30.341 578.239 37.2549 603.797Z" fill="#3F3D56"/>
<path d="M47.4146 598.305C66.3867 616.773 68.7039 645.164 68.7039 645.164C68.7039 645.164 40.2614 643.611 21.2894 625.142C2.3173 606.674 0 578.283 0 578.283C0 578.283 28.4425 579.836 47.4146 598.305Z" fill="#9536F6"/>
<path d="M925.497 643H16.497V645H925.497V643Z" fill="#3F3D56"/>
<path d="M191.997 581.338C191.991 576.906 190.649 572.579 188.146 568.922C185.643 565.265 182.095 562.447 177.966 560.838C182.749 558.979 186.732 555.507 189.225 551.022C191.719 546.537 192.566 541.322 191.62 536.278C190.675 531.235 187.996 526.68 184.047 523.403C180.098 520.126 175.128 518.332 169.997 518.332C164.866 518.332 159.895 520.126 155.947 523.403C151.998 526.68 149.319 531.235 148.374 536.278C147.428 541.322 148.275 546.537 150.769 551.022C153.262 555.507 157.245 558.979 162.028 560.838C157.896 562.443 154.345 565.259 151.841 568.917C149.337 572.575 147.997 576.905 147.997 581.338C147.997 585.771 149.337 590.101 151.841 593.759C154.345 597.417 157.896 600.234 162.028 601.838C157.245 603.697 153.262 607.169 150.769 611.654C148.275 616.139 147.428 621.354 148.374 626.398C149.319 631.442 151.998 635.996 155.947 639.273C159.895 642.55 164.866 644.344 169.997 644.344C175.128 644.344 180.098 642.55 184.047 639.273C187.996 635.996 190.675 631.442 191.62 626.398C192.566 621.354 191.719 616.139 189.225 611.654C186.732 607.169 182.749 603.697 177.966 601.838C182.095 600.229 185.643 597.412 188.146 593.754C190.649 590.097 191.991 585.77 191.997 581.338V581.338ZM149.997 540.338C149.994 536.575 151.052 532.888 153.05 529.7C155.049 526.512 157.906 523.952 161.294 522.314C164.681 520.677 168.462 520.028 172.202 520.443C175.942 520.858 179.489 522.319 182.435 524.659C185.382 527 187.608 530.123 188.859 533.672C190.11 537.221 190.335 541.05 189.507 544.721C188.679 548.391 186.833 551.754 184.18 554.422C181.527 557.091 178.176 558.956 174.51 559.805C171.534 559.182 168.46 559.182 165.484 559.805C161.085 558.783 157.162 556.303 154.35 552.769C151.539 549.235 150.005 544.854 149.997 540.338V540.338ZM189.997 622.338C190 626.101 188.942 629.788 186.944 632.976C184.945 636.165 182.088 638.724 178.7 640.362C175.313 641.999 171.532 642.648 167.792 642.233C164.052 641.818 160.505 640.357 157.559 638.017C154.612 635.677 152.386 632.553 151.135 629.004C149.884 625.456 149.659 621.626 150.487 617.956C151.315 614.285 153.161 610.922 155.814 608.254C158.467 605.586 161.818 603.72 165.484 602.871C168.46 603.494 171.534 603.494 174.51 602.871C178.909 603.893 182.832 606.373 185.644 609.907C188.455 613.441 189.989 617.822 189.997 622.338V622.338ZM174.51 600.805C171.534 600.182 168.46 600.182 165.484 600.805C161.082 599.79 157.154 597.312 154.341 593.776C151.528 590.241 149.997 585.856 149.997 581.338C149.997 576.82 151.528 572.436 154.341 568.9C157.154 565.364 161.082 562.887 165.484 561.871C168.46 562.494 171.534 562.494 174.51 561.871C178.912 562.887 182.84 565.364 185.653 568.9C188.466 572.436 189.997 576.82 189.997 581.338C189.997 585.856 188.466 590.241 185.653 593.776C182.84 597.312 178.912 599.79 174.51 600.805V600.805Z" fill="#3F3D56"/>
<path d="M510.997 271.5H281.997C280.14 271.5 278.36 270.763 277.047 269.45C275.735 268.137 274.997 266.357 274.997 264.5C274.997 262.643 275.735 260.863 277.047 259.55C278.36 258.238 280.14 257.5 281.997 257.5H510.997C512.853 257.5 514.634 258.238 515.947 259.55C517.26 260.863 517.997 262.643 517.997 264.5C517.997 266.357 517.26 268.137 515.947 269.45C514.634 270.763 512.853 271.5 510.997 271.5V271.5Z" fill="#F2F2F2"/>
<path d="M510.997 343.5H281.997C280.14 343.5 278.36 342.763 277.047 341.45C275.735 340.137 274.997 338.357 274.997 336.5C274.997 334.643 275.735 332.863 277.047 331.55C278.36 330.238 280.14 329.5 281.997 329.5H510.997C512.853 329.5 514.634 330.238 515.947 331.55C517.26 332.863 517.997 334.643 517.997 336.5C517.997 338.357 517.26 340.137 515.947 341.45C514.634 342.763 512.853 343.5 510.997 343.5Z" fill="#F2F2F2"/>
<path d="M510.997 415.5H281.997C280.14 415.5 278.36 414.763 277.047 413.45C275.735 412.137 274.997 410.357 274.997 408.5C274.997 406.643 275.735 404.863 277.047 403.55C278.36 402.238 280.14 401.5 281.997 401.5H510.997C512.853 401.5 514.634 402.238 515.947 403.55C517.26 404.863 517.997 406.643 517.997 408.5C517.997 410.357 517.26 412.137 515.947 413.45C514.634 414.763 512.853 415.5 510.997 415.5Z" fill="#F2F2F2"/>
<path d="M510.997 487.5H281.997C280.14 487.5 278.36 486.763 277.047 485.45C275.735 484.137 274.997 482.357 274.997 480.5C274.997 478.643 275.735 476.863 277.047 475.55C278.36 474.238 280.14 473.5 281.997 473.5H510.997C512.853 473.5 514.634 474.238 515.947 475.55C517.26 476.863 517.997 478.643 517.997 480.5C517.997 482.357 517.26 484.137 515.947 485.45C514.634 486.763 512.853 487.5 510.997 487.5V487.5Z" fill="#F2F2F2"/>
<path d="M510.997 559.5H281.997C280.14 559.5 278.36 558.763 277.047 557.45C275.735 556.137 274.997 554.357 274.997 552.5C274.997 550.643 275.735 548.863 277.047 547.55C278.36 546.238 280.14 545.5 281.997 545.5H510.997C512.853 545.5 514.634 546.238 515.947 547.55C517.26 548.863 517.997 550.643 517.997 552.5C517.997 554.357 517.26 556.137 515.947 557.45C514.634 558.763 512.853 559.5 510.997 559.5Z" fill="#F2F2F2"/>
<path d="M470.997 271.5H280.997C279.14 271.5 277.36 270.763 276.047 269.45C274.735 268.137 273.997 266.357 273.997 264.5C273.997 262.643 274.735 260.863 276.047 259.55C277.36 258.238 279.14 257.5 280.997 257.5H470.997C472.853 257.5 474.634 258.238 475.947 259.55C477.26 260.863 477.997 262.643 477.997 264.5C477.997 266.357 477.26 268.137 475.947 269.45C474.634 270.763 472.853 271.5 470.997 271.5V271.5Z" fill="#9536F6"/>
<path d="M411.997 343.5H280.997C279.14 343.5 277.36 342.763 276.047 341.45C274.735 340.137 273.997 338.357 273.997 336.5C273.997 334.643 274.735 332.863 276.047 331.55C277.36 330.238 279.14 329.5 280.997 329.5H411.997C413.853 329.5 415.634 330.238 416.947 331.55C418.26 332.863 418.997 334.643 418.997 336.5C418.997 338.357 418.26 340.137 416.947 341.45C415.634 342.763 413.853 343.5 411.997 343.5Z" fill="#9536F6"/>
<path d="M339.997 415.5H280.997C279.14 415.5 277.36 414.763 276.047 413.45C274.735 412.137 273.997 410.357 273.997 408.5C273.997 406.643 274.735 404.863 276.047 403.55C277.36 402.238 279.14 401.5 280.997 401.5H339.997C341.854 401.5 343.634 402.238 344.947 403.55C346.26 404.863 346.997 406.643 346.997 408.5C346.997 410.357 346.26 412.137 344.947 413.45C343.634 414.763 341.854 415.5 339.997 415.5V415.5Z" fill="#9536F6"/>
<path d="M488.997 487.5H280.997C279.14 487.5 277.36 486.763 276.047 485.45C274.735 484.137 273.997 482.357 273.997 480.5C273.997 478.643 274.735 476.863 276.047 475.55C277.36 474.238 279.14 473.5 280.997 473.5H488.997C490.853 473.5 492.634 474.238 493.947 475.55C495.26 476.863 495.997 478.643 495.997 480.5C495.997 482.357 495.26 484.137 493.947 485.45C492.634 486.763 490.853 487.5 488.997 487.5V487.5Z" fill="#9536F6"/>
<path d="M442.997 559.5H280.997C279.14 559.5 277.36 558.763 276.047 557.45C274.735 556.137 273.997 554.357 273.997 552.5C273.997 550.643 274.735 548.863 276.047 547.55C277.36 546.238 279.14 545.5 280.997 545.5H442.997C444.853 545.5 446.634 546.238 447.947 547.55C449.26 548.863 449.997 550.643 449.997 552.5C449.997 554.357 449.26 556.137 447.947 557.45C446.634 558.763 444.853 559.5 442.997 559.5V559.5Z" fill="#9536F6"/>
<path d="M605.997 257.5H603.997V271.5H605.997V257.5Z" fill="#9536F6"/>
<path d="M620.997 272.5C619.415 272.5 617.868 272.031 616.552 271.152C615.237 270.273 614.211 269.023 613.606 267.561C613 266.1 612.842 264.491 613.151 262.939C613.459 261.387 614.221 259.962 615.34 258.843C616.459 257.724 617.884 256.962 619.436 256.654C620.988 256.345 622.597 256.503 624.058 257.109C625.52 257.714 626.77 258.74 627.649 260.055C628.528 261.371 628.997 262.918 628.997 264.5C628.994 266.621 628.151 268.654 626.651 270.154C625.151 271.654 623.118 272.498 620.997 272.5V272.5ZM620.997 258.5C619.81 258.5 618.65 258.852 617.664 259.511C616.677 260.17 615.908 261.108 615.454 262.204C615 263.3 614.881 264.507 615.112 265.671C615.344 266.834 615.915 267.904 616.754 268.743C617.593 269.582 618.662 270.153 619.826 270.385C620.99 270.616 622.197 270.497 623.293 270.043C624.389 269.589 625.326 268.82 625.986 267.833C626.645 266.847 626.997 265.687 626.997 264.5C626.995 262.909 626.362 261.384 625.238 260.259C624.113 259.134 622.588 258.502 620.997 258.5V258.5Z" fill="#9536F6"/>
<path d="M605.997 329.5H603.997V343.5H605.997V329.5Z" fill="#9536F6"/>
<path d="M620.997 344.5C619.415 344.5 617.868 344.031 616.552 343.152C615.237 342.273 614.211 341.023 613.606 339.561C613 338.1 612.842 336.491 613.151 334.939C613.459 333.387 614.221 331.962 615.34 330.843C616.459 329.724 617.884 328.962 619.436 328.654C620.988 328.345 622.597 328.503 624.058 329.109C625.52 329.714 626.77 330.74 627.649 332.055C628.528 333.371 628.997 334.918 628.997 336.5C628.994 338.621 628.151 340.654 626.651 342.154C625.151 343.654 623.118 344.498 620.997 344.5ZM620.997 330.5C619.81 330.5 618.65 330.852 617.664 331.511C616.677 332.17 615.908 333.108 615.454 334.204C615 335.3 614.881 336.507 615.112 337.671C615.344 338.834 615.915 339.904 616.754 340.743C617.593 341.582 618.662 342.153 619.826 342.385C620.99 342.616 622.197 342.497 623.293 342.043C624.389 341.589 625.326 340.82 625.986 339.833C626.645 338.847 626.997 337.687 626.997 336.5C626.995 334.909 626.362 333.384 625.238 332.259C624.113 331.134 622.588 330.502 620.997 330.5V330.5Z" fill="#9536F6"/>
<path d="M605.997 401.5H603.997V415.5H605.997V401.5Z" fill="#9536F6"/>
<path d="M620.997 416.5C619.415 416.5 617.868 416.031 616.552 415.152C615.237 414.273 614.211 413.023 613.606 411.561C613 410.1 612.842 408.491 613.151 406.939C613.459 405.387 614.221 403.962 615.34 402.843C616.459 401.724 617.884 400.962 619.436 400.654C620.988 400.345 622.597 400.503 624.058 401.109C625.52 401.714 626.77 402.74 627.649 404.055C628.528 405.371 628.997 406.918 628.997 408.5C628.994 410.621 628.151 412.654 626.651 414.154C625.151 415.654 623.118 416.498 620.997 416.5V416.5ZM620.997 402.5C619.81 402.5 618.65 402.852 617.664 403.511C616.677 404.17 615.908 405.108 615.454 406.204C615 407.3 614.881 408.507 615.112 409.671C615.344 410.834 615.915 411.904 616.754 412.743C617.593 413.582 618.662 414.153 619.826 414.385C620.99 414.616 622.197 414.497 623.293 414.043C624.389 413.589 625.326 412.82 625.986 411.833C626.645 410.847 626.997 409.687 626.997 408.5C626.995 406.909 626.362 405.384 625.238 404.259C624.113 403.134 622.588 402.502 620.997 402.5V402.5Z" fill="#9536F6"/>
<path d="M605.997 473.5H603.997V487.5H605.997V473.5Z" fill="#9536F6"/>
<path d="M620.997 488.5C619.415 488.5 617.868 488.031 616.552 487.152C615.237 486.273 614.211 485.023 613.606 483.561C613 482.1 612.842 480.491 613.151 478.939C613.459 477.387 614.221 475.962 615.34 474.843C616.459 473.724 617.884 472.962 619.436 472.654C620.988 472.345 622.597 472.503 624.058 473.109C625.52 473.714 626.77 474.74 627.649 476.055C628.528 477.371 628.997 478.918 628.997 480.5C628.994 482.621 628.151 484.654 626.651 486.154C625.151 487.654 623.118 488.498 620.997 488.5V488.5ZM620.997 474.5C619.81 474.5 618.65 474.852 617.664 475.511C616.677 476.17 615.908 477.108 615.454 478.204C615 479.3 614.881 480.507 615.112 481.671C615.344 482.834 615.915 483.904 616.754 484.743C617.593 485.582 618.662 486.153 619.826 486.385C620.99 486.616 622.197 486.497 623.293 486.043C624.389 485.589 625.326 484.82 625.986 483.833C626.645 482.847 626.997 481.687 626.997 480.5C626.995 478.909 626.362 477.384 625.238 476.259C624.113 475.134 622.588 474.502 620.997 474.5Z" fill="#9536F6"/>
<path d="M605.997 545.5H603.997V559.5H605.997V545.5Z" fill="#9536F6"/>
<path d="M620.997 560.5C619.415 560.5 617.868 560.031 616.552 559.152C615.237 558.273 614.211 557.023 613.606 555.561C613 554.1 612.842 552.491 613.151 550.939C613.459 549.387 614.221 547.962 615.34 546.843C616.459 545.724 617.884 544.962 619.436 544.654C620.988 544.345 622.597 544.503 624.058 545.109C625.52 545.714 626.77 546.74 627.649 548.055C628.528 549.371 628.997 550.918 628.997 552.5C628.994 554.621 628.151 556.654 626.651 558.154C625.151 559.654 623.118 560.498 620.997 560.5V560.5ZM620.997 546.5C619.81 546.5 618.65 546.852 617.664 547.511C616.677 548.17 615.908 549.108 615.454 550.204C615 551.3 614.881 552.507 615.112 553.671C615.344 554.834 615.915 555.904 616.754 556.743C617.593 557.582 618.662 558.153 619.826 558.385C620.99 558.616 622.197 558.497 623.293 558.043C624.389 557.589 625.326 556.82 625.986 555.833C626.645 554.847 626.997 553.687 626.997 552.5C626.995 550.909 626.362 549.384 625.238 548.259C624.113 547.134 622.588 546.502 620.997 546.5Z" fill="#9536F6"/>
<path d="M620.997 268.5C623.206 268.5 624.997 266.709 624.997 264.5C624.997 262.291 623.206 260.5 620.997 260.5C618.788 260.5 616.997 262.291 616.997 264.5C616.997 266.709 618.788 268.5 620.997 268.5Z" fill="#9536F6"/>
<path d="M620.997 484.5C623.206 484.5 624.997 482.709 624.997 480.5C624.997 478.291 623.206 476.5 620.997 476.5C618.788 476.5 616.997 478.291 616.997 480.5C616.997 482.709 618.788 484.5 620.997 484.5Z" fill="#9536F6"/>
<path d="M620.997 556.5C623.206 556.5 624.997 554.709 624.997 552.5C624.997 550.291 623.206 548.5 620.997 548.5C618.788 548.5 616.997 550.291 616.997 552.5C616.997 554.709 618.788 556.5 620.997 556.5Z" fill="#9536F6"/>
<path d="M451.497 199C455.363 199 458.497 195.866 458.497 192C458.497 188.134 455.363 185 451.497 185C447.631 185 444.497 188.134 444.497 192C444.497 195.866 447.631 199 451.497 199Z" fill="#3F3D56"/>
<path d="M451.497 14C455.363 14 458.497 10.866 458.497 7C458.497 3.13401 455.363 0 451.497 0C447.631 0 444.497 3.13401 444.497 7C444.497 10.866 447.631 14 451.497 14Z" fill="#3F3D56"/>
<path d="M452.497 6.99994H450.497V192H452.497V6.99994Z" fill="#3F3D56"/>
</g>
<defs>
<clipPath id="clip0">
<rect width="925.497" height="645.184" fill="white"/>
</clipPath>
</defs>
</svg>
